<?xml version="1.0" encoding="UTF-8"?>
<svg width="608px" height="790px" viewBox="0 0 608 790" version="1.1" xmlns="http://www.w3.org/2000/svg" xmlns:xlink="http://www.w3.org/1999/xlink">
    <!-- Generator: Sketch 60.1 (88133) - https://sketch.com -->
    <title>N5</title>
    <desc>Created with Sketch.</desc>
    <defs>
        <path d="M0,1.37362502 L8.25520759,214.59614 C27.6542861,223.568096 43.8325253,223.568096 56.7899251,214.59614 L63.0779408,-2.27373675e-13 L0,1.37362502 Z" id="path-1"></path>
        <path d="M0,7.00233485 L23.2585257,228.24964 C45.6103747,238.679472 61.8872245,237.70612 72.0890752,225.329582 L64.9518495,-1.36424205e-12 L0,7.00233485 Z" id="path-3"></path>
        <polygon id="path-5" points="14.8064641 10.5547566 1 188.085332 119.776287 190.787687 119.776287 39.3729032 135.802939 190.787687 258.380526 177.835382 220.769969 1"></polygon>
        <path d="M229.600281,155.997594 L59.5201689,61.8493356 C57.4206006,61.0664689 55.5032748,60.6750355 53.7681915,60.6750355 C51.1655667,60.6750355 40.2379676,58.5509075 30.4506226,49.3189179 C29.3571381,48.1951801 28.3304045,47.524888 27.3704217,47.3080417 C26.4104389,47.0911954 20.0583479,44.9010039 8.3141487,40.7374672 C6.14738061,38.4206358 5.42366075,36.1878652 6.14298911,34.0391554 C7.22198164,30.8160908 10.477374,28.5848568 15.2499832,29.7004738 C18.4317226,30.4442185 23.4986024,32.1547884 30.4506226,34.8321836 L1.05075475,9.52576146 C-0.685020693,6.29650815 -0.270258828,3.65681208 2.29504035,1.60667324 C4.86033952,-0.443465591 8.04341907,-0.0479716413 11.844279,2.79315509 L24.893656,13.8619741 L36.3561022,23.5847174 L25.5454916,13.030454 C25.3239877,11.3553814 25.9322978,9.97014797 27.3704217,8.87475364 C29.5276076,7.23166213 32.5086666,7.21759715 34.4323844,8.87475364 C35.7148629,9.97952463 39.627126,13.4709894 46.1691736,19.349148 L35.4937459,8.87475364 C35.1908827,6.80150804 35.9297819,5.26959689 37.7104438,4.27902017 C39.4911056,3.28844345 41.3173309,3.28844345 43.1891197,4.27902017 L52.5418657,13.030454 L44.5032581,4.27902017 C44.6087912,2.3862752 45.4577465,1.11992434 47.0501238,0.479967573 C48.6425011,-0.159989191 50.2268379,-0.159989191 51.803134,0.479967573 C65.2668134,13.1575412 73.5742791,23.2756227 76.7255312,30.834212 C76.9577041,31.4349877 77.8654563,31.9491968 79.4487879,32.3768393 C81.0321196,32.8044818 139.591771,58.274828 255.127743,108.787878 L229.600281,155.997594 Z" id="path-7"></path>
        <path d="M37.1289381,0 L38.3176076,21.5779616 C38.2836456,23.9247008 40.615484,25.0980704 45.313123,25.0980704 C52.3595814,25.0980704 68.5779816,27.3306106 73.297391,29.3560211 C78.0168005,31.3814315 46.8982332,53.2589408 29.334663,51.0984163 C17.6256162,49.6580667 7.84739517,41.7567141 0,27.3943584 C4.14815146,26.5034836 8.68447098,26.0580461 13.6089585,26.0580461 C16.0167761,25.7099431 17.2206848,25.0662407 17.2206848,24.1269387 C17.2206848,23.1876368 17.2206848,15.1453238 17.2206848,0 L37.1289381,0 Z" id="path-9"></path>
        <path d="M88.862016,249.483517 L95.7254282,115.058848 L0,66.1791381 L40.3537682,0 L75.420141,14.1608174 C93.9641357,19.1199868 108.477796,19.1199868 118.961122,14.1608174 C129.444447,9.2016481 142.362766,7.0315702 157.716077,7.65058374 L166.705986,244.399318 L88.862016,249.483517 Z" id="path-11"></path>
        <path d="M8.1461633,0 C66.0351675,3.26079647 114.007411,25.4295207 152.062893,66.5061726 L101.531942,130.063553 L67.7774923,84.3678303 L110.582841,231.32453 L0,235.96748 L8.1461633,0 Z" id="path-13"></path>
        <rect id="path-15" x="0" y="0" width="104.167444" height="60.6097364" rx="26"></rect>
        <path d="M171.791009,41.2846873 L190.440763,56.4827065 C195.99843,62.7035765 198.777263,68.51759 198.777263,73.924747 C198.777263,82.0354825 193.145444,88.5568758 184.973517,91.6789999 C179.525566,93.760416 147.959696,105.774344 90.2759057,127.720784 C83.7324055,130.453971 78.9826473,130.453971 76.0266312,127.720784 C71.592607,123.621005 62.5197339,111.981479 60.8084371,108.506471 C59.6675726,106.189798 57.4327269,105.675515 54.1039,106.96362 C51.217977,108.962483 50.817218,112.068887 52.9016228,116.282831 C56.0282301,122.603747 65.5108838,132.471552 59.8073919,138.524497 C54.1039,144.577441 37.6626577,152.10078 19.9577175,140.641244 L13.4373652,136.537709 C11.137847,135.212685 9.14645422,135.109564 7.46318681,136.228347 C4.93828568,137.906521 5.67467788,141.873255 7.76078681,142.949293 C9.1515261,143.666652 16.947975,148.349556 31.1501336,156.998005 L5.68519458,141.753051 C2.57255208,141.200042 0.750926768,142.029873 0.220318633,144.242547 C-0.57559357,147.561556 0.655083157,149.685405 6.05439759,152.779935 C11.453712,155.874465 35.1982782,168.16561 60.8084371,165.844936 C77.8818764,164.297819 128.289807,150.795866 212.032228,125.339077 C235.271782,113.256501 248.427507,98.0284934 251.499405,79.6550559 C254.571303,61.2816184 248.931013,44.0278765 234.578537,27.8938303 L204.366108,0 L171.791009,41.2846873 Z" id="path-17"></path>
    </defs>
    <g id="页面-1" stroke="none" stroke-width="1" fill="none" fill-rule="evenodd">
        <g id="画板" transform="translate(-4334.000000, -511.000000)">
            <g id="男" transform="translate(2211.000000, 497.000000)">
                <g id="N5" transform="translate(2123.000000, 14.000000)">
                    <g id="编组-80" transform="translate(315.389704, 535.009800)">
                        <mask id="mask-2" fill="white">
                            <use xlink:href="#path-1"></use>
                        </mask>
                        <use id="路径-272" fill="#FFC7CA" xlink:href="#path-1"></use>
                        <polygon id="路径-347" fill="#FDF7DA" mask="url(#mask-2)" points="8.08641028 216.58637 7.06158264 192.299497 59.7134175 192.299497 58.730388 220.819792 46.5156482 227.544881 22.6257788 226.118442"></polygon>
                        <polygon id="路径-280" fill="#000000" mask="url(#mask-2)" points="-0.29434085 9.35045625 63.7024956 16.2641285 64.0631599 8.50503409 -0.578696704 6.9344681"></polygon>
                    </g>
                    <g id="编组-81" transform="translate(468.015793, 533.320296)">
                        <mask id="mask-4" fill="white">
                            <use xlink:href="#path-3"></use>
                        </mask>
                        <use id="路径-273" fill="#FFC7CA" xlink:href="#path-3"></use>
                        <polygon id="路径-347" fill="#FDF7DA" mask="url(#mask-4)" points="18.9061093 219.219991 15.8016617 192.195685 71.4940829 191.837366 72.3319436 219.219991 58.0325606 226.541977 33.6652601 225.137424"></polygon>
                        <polygon id="路径-279" fill="#000000" mask="url(#mask-4)" points="1.11022302e-15 16.3656228 65.3469314 3.44349547 65.3469314 1.73091406 -1.2413294 8.38796296"></polygon>
                    </g>
                    <g id="编组-79" transform="translate(298.057023, 354.359141)">
                        <mask id="mask-6" fill="white">
                            <use xlink:href="#path-5"></use>
                        </mask>
                        <use id="路径-271" fill="#FFFFFF" xlink:href="#path-5"></use>
                        <path d="M61.0727184,44.0392842 C69.9390514,44.0392842 77.1266345,51.2362681 77.1266345,60.1141976 C77.1266345,68.9921271 69.9390514,76.189111 61.0727184,76.189111 C52.2063853,76.189111 45.0188023,68.9921271 45.0188023,60.1141976 C45.0188023,51.2362681 52.2063853,44.0392842 61.0727184,44.0392842 Z M61.0727184,48.5446299 C54.6961103,48.5446299 49.5243695,53.723135 49.5243695,60.1141976 C49.5243695,66.5052602 54.6961103,71.6837653 61.0727184,71.6837653 C67.4493264,71.6837653 72.6210673,66.5052602 72.6210673,60.1141976 C72.6210673,53.723135 67.4493264,48.5446299 61.0727184,48.5446299 Z" id="椭圆形" fill="#E7F4FF" fill-rule="nonzero" mask="url(#mask-6)"></path>
                        <path d="M111.823808,164.860407 C120.690141,164.860407 127.877724,172.057391 127.877724,180.935321 C127.877724,189.81325 120.690141,197.010234 111.823808,197.010234 C102.957475,197.010234 95.7698919,189.81325 95.7698919,180.935321 C95.7698919,172.057391 102.957475,164.860407 111.823808,164.860407 Z M111.823808,169.365753 C105.4472,169.365753 100.275459,174.544258 100.275459,180.935321 C100.275459,187.326383 105.4472,192.504889 111.823808,192.504889 C118.200416,192.504889 123.372157,187.326383 123.372157,180.935321 C123.372157,174.544258 118.200416,169.365753 111.823808,169.365753 Z" id="椭圆形" fill="#E7F4FF" fill-rule="nonzero" mask="url(#mask-6)"></path>
                        <path d="M17.0539161,119.746941 C25.9202492,119.746941 33.1078322,126.943925 33.1078322,135.821854 C33.1078322,144.699784 25.9202492,151.896768 17.0539161,151.896768 C8.18758307,151.896768 1,144.699784 1,135.821854 C1,126.943925 8.18758307,119.746941 17.0539161,119.746941 Z M17.0539161,124.252287 C10.6773081,124.252287 5.5055672,129.430792 5.5055672,135.821854 C5.5055672,142.212917 10.6773081,147.391422 17.0539161,147.391422 C23.4305242,147.391422 28.602265,142.212917 28.602265,135.821854 C28.602265,129.430792 23.4305242,124.252287 17.0539161,124.252287 Z" id="椭圆形" fill="#E7F4FF" fill-rule="nonzero" mask="url(#mask-6)"></path>
                        <path d="M80.7517123,99.0051171 C89.6180454,99.0051171 96.8056284,106.202101 96.8056284,115.08003 C96.8056284,123.95796 89.6180454,131.154944 80.7517123,131.154944 C71.8853793,131.154944 64.6977962,123.95796 64.6977962,115.08003 C64.6977962,106.202101 71.8853793,99.0051171 80.7517123,99.0051171 Z M80.7517123,103.510463 C74.3751043,103.510463 69.2033634,108.688968 69.2033634,115.08003 C69.2033634,121.471093 74.3751043,126.649598 80.7517123,126.649598 C87.1283204,126.649598 92.3000613,121.471093 92.3000613,115.08003 C92.3000613,108.688968 87.1283204,103.510463 80.7517123,103.510463 Z" id="椭圆形" fill="#E7F4FF" fill-rule="nonzero" mask="url(#mask-6)"></path>
                        <path d="M108.716598,0.481454407 C117.582932,0.481454407 124.770515,7.67843828 124.770515,16.5563678 C124.770515,25.4342973 117.582932,32.6312812 108.716598,32.6312812 C99.8502654,32.6312812 92.6626824,25.4342973 92.6626824,16.5563678 C92.6626824,7.67843828 99.8502654,0.481454407 108.716598,0.481454407 Z M108.716598,4.98680009 C102.33999,4.98680009 97.1682496,10.1653052 97.1682496,16.5563678 C97.1682496,22.9474304 102.33999,28.1259355 108.716598,28.1259355 C115.093207,28.1259355 120.264947,22.9474304 120.264947,16.5563678 C120.264947,10.1653052 115.093207,4.98680009 108.716598,4.98680009 Z" id="椭圆形" fill="#E7F4FF" fill-rule="nonzero" mask="url(#mask-6)"></path>
                        <path d="M155.84261,110.41312 C164.708943,110.41312 171.896526,117.610104 171.896526,126.488034 C171.896526,135.365963 164.708943,142.562947 155.84261,142.562947 C146.976277,142.562947 139.788694,135.365963 139.788694,126.488034 C139.788694,117.610104 146.976277,110.41312 155.84261,110.41312 Z M155.84261,114.918466 C149.466002,114.918466 144.294261,120.096971 144.294261,126.488034 C144.294261,132.879096 149.466002,138.057601 155.84261,138.057601 C162.219218,138.057601 167.390959,132.879096 167.390959,126.488034 C167.390959,120.096971 162.219218,114.918466 155.84261,114.918466 Z" id="椭圆形" fill="#E7F4FF" fill-rule="nonzero" mask="url(#mask-6)"></path>
                        <path d="M216.433197,139.970219 C225.29953,139.970219 232.487113,147.167203 232.487113,156.045132 C232.487113,164.923062 225.29953,172.120046 216.433197,172.120046 C207.566864,172.120046 200.379281,164.923062 200.379281,156.045132 C200.379281,147.167203 207.566864,139.970219 216.433197,139.970219 Z M216.433197,144.475565 C210.056589,144.475565 204.884848,149.65407 204.884848,156.045132 C204.884848,162.436195 210.056589,167.6147 216.433197,167.6147 C222.809805,167.6147 227.981546,162.436195 227.981546,156.045132 C227.981546,149.65407 222.809805,144.475565 216.433197,144.475565 Z" id="椭圆形" fill="#E7F4FF" fill-rule="nonzero" mask="url(#mask-6)"></path>
                        <path d="M228.862035,54.9287417 C237.728368,54.9287417 244.915951,62.1257256 244.915951,71.0036551 C244.915951,79.8815846 237.728368,87.0785685 228.862035,87.0785685 C219.995702,87.0785685 212.808119,79.8815846 212.808119,71.0036551 C212.808119,62.1257256 219.995702,54.9287417 228.862035,54.9287417 Z M228.862035,59.4340874 C222.485427,59.4340874 217.313686,64.6125925 217.313686,71.0036551 C217.313686,77.3947177 222.485427,82.5732228 228.862035,82.5732228 C235.238643,82.5732228 240.410384,77.3947177 240.410384,71.0036551 C240.410384,64.6125925 235.238643,59.4340874 228.862035,59.4340874 Z" id="椭圆形" fill="#E7F4FF" fill-rule="nonzero" mask="url(#mask-6)"></path>
                        <path d="M163.092766,54.9287417 C171.959099,54.9287417 179.146682,62.1257256 179.146682,71.0036551 C179.146682,79.8815846 171.959099,87.0785685 163.092766,87.0785685 C154.226433,87.0785685 147.03885,79.8815846 147.03885,71.0036551 C147.03885,62.1257256 154.226433,54.9287417 163.092766,54.9287417 Z M163.092766,59.4340874 C156.716158,59.4340874 151.544417,64.6125925 151.544417,71.0036551 C151.544417,77.3947177 156.716158,82.5732228 163.092766,82.5732228 C169.469374,82.5732228 174.641115,77.3947177 174.641115,71.0036551 C174.641115,64.6125925 169.469374,59.4340874 163.092766,59.4340874 Z" id="椭圆形" fill="#E7F4FF" fill-rule="nonzero" mask="url(#mask-6)"></path>
                        <path d="M193.129125,2.55563678 C201.995458,2.55563678 209.183041,9.75262065 209.183041,18.6305502 C209.183041,27.5084797 201.995458,34.7054636 193.129125,34.7054636 C184.262792,34.7054636 177.075209,27.5084797 177.075209,18.6305502 C177.075209,9.75262065 184.262792,2.55563678 193.129125,2.55563678 Z M193.129125,7.06098247 C186.752517,7.06098247 181.580776,12.2394876 181.580776,18.6305502 C181.580776,25.0216128 186.752517,30.2001179 193.129125,30.2001179 C199.505733,30.2001179 204.677474,25.0216128 204.677474,18.6305502 C204.677474,12.2394876 199.505733,7.06098247 193.129125,7.06098247 Z" id="椭圆形" fill="#E7F4FF" fill-rule="nonzero" mask="url(#mask-6)"></path>
                        <path d="M195.962393,11.7487614 C205.392391,28.0960511 216.773762,38.7179378 230.10607,43.6272039 L230.510677,43.7742209 L230.320604,44.3043475 C216.813798,39.4620576 205.294668,28.8653517 195.762777,12.5270122 L195.47454,12.0301535 L195.962393,11.7487614 Z" id="路径-275" fill="#000000" fill-rule="nonzero" mask="url(#mask-6)"></path>
                        <path d="M44.7453369,18.0448209 L45.2922676,18.1791882 C39.9365555,39.9770148 28.8232607,53.8247813 11.9597785,59.6873787 L11.4470038,59.862589 L11.2677267,59.3287151 C28.0526009,53.6928369 39.1550949,40.1608511 44.582604,18.6976487 L44.7453369,18.0448209 Z" id="路径-276" fill="#000000" fill-rule="nonzero" mask="url(#mask-6)"></path>
                        <path d="M195.44334,11.9494776 L196.40371,16.3512864 L196.953963,16.231246 L195.993593,11.8294373 L195.44334,11.9494776 Z M197.36408,20.7530951 L198.324449,25.1549039 L198.874703,25.0348635 L197.914333,20.6330548 L197.36408,20.7530951 Z M199.284819,29.5567126 L200.245189,33.9585214 L200.795442,33.838481 L199.835072,29.4366723 L199.284819,29.5567126 Z M201.205559,38.3603301 L202.165929,42.7621389 L202.716182,42.6420985 L201.755812,38.2402898 L201.205559,38.3603301 Z M203.126298,47.1639476 L204.086668,51.5657564 L204.636921,51.445716 L203.676552,47.0439073 L203.126298,47.1639476 Z M205.047038,55.9675651 L206.007408,60.3693739 L206.557661,60.2493335 L205.597291,55.8475248 L205.047038,55.9675651 Z M206.967778,64.7711826 L207.928148,69.1729913 L208.478401,69.052951 L207.518031,64.6511423 L206.967778,64.7711826 Z M208.888517,73.5748001 L209.848887,77.9766088 L210.39914,77.8565685 L209.438771,73.4547598 L208.888517,73.5748001 Z M210.809257,82.3784176 L211.769627,86.7802263 L212.31988,86.660186 L211.35951,82.2583773 L210.809257,82.3784176 Z M212.729997,91.1820351 L213.690367,95.5838438 L214.24062,95.4638035 L213.28025,91.0619948 L212.729997,91.1820351 Z M214.650736,99.9856526 L215.611106,104.387461 L216.161359,104.267421 L215.200989,99.8656123 L214.650736,99.9856526 Z M216.571476,108.78927 L217.531846,113.191079 L218.082099,113.071039 L217.121729,108.66923 L216.571476,108.78927 Z M218.492216,117.592888 L219.452585,121.994696 L220.002839,121.874656 L219.042469,117.472847 L218.492216,117.592888 Z M220.412955,126.396505 L221.373325,130.798314 L221.923578,130.678273 L220.963208,126.276465 L220.412955,126.396505 Z M222.333695,135.200123 L223.294065,139.601931 L223.844318,139.481891 L222.883948,135.080082 L222.333695,135.200123 Z M224.254435,144.00374 L225.214804,148.405549 L225.765058,148.285508 L224.804688,143.8837 L224.254435,144.00374 Z M226.175174,152.807358 L227.135544,157.209166 L227.685797,157.089126 L226.725427,152.687317 L226.175174,152.807358 Z M228.095914,161.610975 L229.056284,166.012784 L229.606537,165.892743 L228.646167,161.490935 L228.095914,161.610975 Z M230.016653,170.414593 L230.977023,174.816401 L231.527276,174.696361 L230.566907,170.294552 L230.016653,170.414593 Z M231.937393,179.21821 L232.211986,180.476795 L232.76224,180.356755 L232.487646,179.09817 L231.937393,179.21821 Z" id="路径-277" fill="#000000" fill-rule="nonzero" mask="url(#mask-6)"></path>
                        <path d="M44.2202827,18.6074802 L43.8511455,23.0976796 L44.412448,23.1438195 L44.7815853,18.6536201 L44.2202827,18.6074802 Z M43.4820082,27.5878791 L43.1128709,32.0780785 L43.6741734,32.1242184 L44.0433107,27.634019 L43.4820082,27.5878791 Z M42.7437337,36.5682779 L42.3745964,41.0584773 L42.9358989,41.1046172 L43.3050362,36.6144178 L42.7437337,36.5682779 Z M42.0054591,45.5486767 L41.6363218,50.0388762 L42.1976244,50.0850161 L42.5667616,45.5948166 L42.0054591,45.5486767 Z M41.2671846,54.5290756 L40.8980473,59.019275 L41.4593498,59.0654149 L41.8284871,54.5752155 L41.2671846,54.5290756 Z M40.52891,63.5094744 L40.1597727,67.9996739 L40.7210753,68.0458137 L41.0902125,63.5556143 L40.52891,63.5094744 Z M39.7906355,72.4898733 L39.4214982,76.9800727 L39.9828007,77.0262126 L40.351938,72.5360132 L39.7906355,72.4898733 Z M39.0523609,81.4702721 L38.6832237,85.9604715 L39.2445262,86.0066114 L39.6136635,81.516412 L39.0523609,81.4702721 Z M38.3140864,90.450671 L37.9449491,94.9408704 L38.5062516,94.9870103 L38.8753889,90.4968108 L38.3140864,90.450671 Z M37.5758118,99.4310698 L37.2066746,103.921269 L37.7679771,103.967409 L38.1371144,99.4772097 L37.5758118,99.4310698 Z M36.8375373,108.411469 L36.4684,112.901668 L37.0297026,112.947808 L37.3988398,108.457609 L36.8375373,108.411469 Z M36.0992628,117.391867 L35.7301255,121.882067 L36.291428,121.928207 L36.6605653,117.438007 L36.0992628,117.391867 Z M35.3609882,126.372266 L34.9918509,130.862466 L35.5531535,130.908606 L35.9222907,126.418406 L35.3609882,126.372266 Z M34.6227137,135.352665 L34.2535764,139.842865 L34.8148789,139.889004 L35.1840162,135.398805 L34.6227137,135.352665 Z M33.8844391,144.333064 L33.5153019,148.823263 L34.0766044,148.869403 L34.4457417,144.379204 L33.8844391,144.333064 Z M33.1461646,153.313463 L32.7770273,157.803662 L33.3383298,157.849802 L33.7074671,153.359603 L33.1461646,153.313463 Z M32.40789,162.293862 L32.0387528,166.784061 L32.6000553,166.830201 L32.9691926,162.340002 L32.40789,162.293862 Z M31.6696155,171.274261 L31.3004782,175.76446 L31.8617808,175.8106 L32.230918,171.3204 L31.6696155,171.274261 Z M30.931341,180.254659 L30.5622037,184.744859 L31.1235062,184.790999 L31.4926435,180.300799 L30.931341,180.254659 Z" id="路径-278" fill="#000000" fill-rule="nonzero" mask="url(#mask-6)"></path>
                        <polygon id="路径-210" fill="#000000" mask="url(#mask-6)" points="11.3573652 27.9643708 228.750983 13.4621901 228.750983 8.81665167 11.3573652 15.1488741"></polygon>
                        <path d="M258.720993,178.082558 L220.995685,0.707641977 L14.5449949,10.2849994 L0.696185094,188.360076 L120.057885,191.075751 L120.05736,44.7074849 L135.55254,191.097298 L258.720993,178.082558 Z M220.543899,1.2922843 L258.039229,177.587587 L136.052687,190.477945 L120.056321,39.3432656 L119.494689,39.3729032 L119.494165,190.499345 L1.30356259,187.810217 L15.0675072,10.8244694 L220.543899,1.2922843 Z" id="路径-271" fill="#000000" fill-rule="nonzero"></path>
                    </g>
                    <g id="编组-87" transform="translate(0.563196, 30.411083)">
                        <mask id="mask-8" fill="white">
                            <use xlink:href="#path-7"></use>
                        </mask>
                        <use id="路径-270" fill="#FFC7CA" xlink:href="#path-7"></use>
                        <polygon id="路径-287" fill="#000000" mask="url(#mask-8)" points="250.460772 106.762473 218.82908 149.795896 223.066811 152.369743"></polygon>
                    </g>
                    <path d="M47.6496121,30.6304979 C49.2476513,29.9891603 50.8456793,29.9635068 52.4296539,30.5538656 L52.6275765,30.6308688 L52.4159645,31.1527723 C50.9026409,30.5392374 49.3890716,30.5392374 47.8593848,31.1531432 C46.416771,31.7321042 45.6342682,32.8453739 45.4934318,34.5357359 L45.4893328,34.59486 L53.4699779,43.271806 L53.0704568,43.668169 L43.7180817,34.9293819 L43.5768945,34.8571181 C41.9022463,34.027325 40.2821181,34.0272431 38.6883304,34.8545762 L38.5235486,34.9431139 C36.8917926,35.8495903 36.1975737,37.2119598 36.4186687,39.0824609 L36.4292004,39.1660964 L47.067988,49.5901293 L46.6828373,50.000835 L38.5756173,42.7458793 C36.7504474,41.1200899 35.5301882,40.04252 34.9152514,39.5135303 C33.0951642,37.9478289 30.2534575,37.9518031 28.1862292,39.524182 C26.8696438,40.5256056 26.2959257,41.7615397 26.4456873,43.2635212 L26.4533114,43.329599 L37.2249694,53.8319992 L36.8463756,54.2484746 L12.2745633,33.4343637 C8.55490745,30.65781 5.49894017,30.2786385 3.04078145,32.240416 C0.624218596,34.1689973 0.201419881,36.6073928 1.7739247,39.6460224 L1.8405242,39.7726286 L32.5221205,66.1457438 L31.0041029,65.561932 C24.0424504,62.8845621 18.9704453,61.1746472 15.7949231,60.4333899 C11.4754836,59.4251097 8.1291846,61.2010027 6.99161322,64.5943149 C6.32406483,66.5855746 6.9656929,68.6635204 8.9523581,70.8527682 L9.06125883,70.9710211 L17.7890615,74.0460124 C23.7059538,76.1165577 27.111549,77.2694599 27.9787144,77.495944 L28.0777117,77.5202956 C29.1013961,77.751209 30.1753364,78.4513428 31.2982745,79.6041117 C35.666909,83.7191199 40.5732711,86.7240594 45.6043355,88.7017255 C49.1277157,90.0867345 52.5513018,90.8624404 54.3570383,90.90036 L54.4927244,90.9018195 C56.1755046,90.9018195 58.0193048,91.2596615 60.0245292,91.9734444 L60.360228,92.0957037 L60.1636946,92.6234695 C58.2028606,91.8933513 56.4076622,91.5090081 54.7785,91.4685568 L54.4927244,91.4649878 C52.6494382,91.4649878 49.073171,90.6704139 45.3982867,89.22585 C40.3029717,87.2229277 35.3352735,84.1804223 30.9035028,80.0055885 C29.8974042,78.9730946 28.9597893,78.342015 28.0969008,78.1054374 L27.8510263,78.0444442 C26.7695885,77.7629252 21.9849607,76.126159 13.4484567,73.1184002 L8.74364369,71.4564135 L8.69675208,71.4063442 C6.45858708,69.0165049 5.6993136,66.6773099 6.45762213,64.4153177 C7.68921325,60.7415499 11.32546,58.8117805 15.9229533,59.8849664 L16.3019721,59.975791 C19.2075602,60.6892997 23.5295309,62.1301208 29.272335,64.2990373 L29.6967566,64.4596703 L1.43353854,40.1656523 L1.3691417,40.0855745 C-0.433935527,36.7357852 0.00562919401,33.9421318 2.68946405,31.8002494 C5.33174205,29.6915322 8.59391956,30.0549917 12.4262931,32.8472646 L12.6250276,32.9938583 L31.069265,48.6166221 L25.9189722,43.5960104 L25.9061782,43.499393 C25.6704484,41.7192237 26.3239895,40.2330638 27.8452615,39.0759511 C30.1183982,37.3469539 33.2551488,37.3425671 35.2825451,39.0866029 L36.2554339,39.9357363 L37.8428221,41.3399257 L35.8985525,39.4347533 L35.8848118,39.3408225 C35.5642444,37.1494405 36.3607776,35.5003412 38.2500389,34.450815 C40.0618065,33.4443382 41.932146,33.4128858 43.8297639,34.3539079 L44.0134884,34.4480103 L44.0741711,34.4912255 L48.0163928,38.1749203 L44.9121992,34.8000369 L44.9188306,34.6812676 C45.0305935,32.6795829 45.9476604,31.3135384 47.6496121,30.6304979 Z" id="路径" fill="#000000" fill-rule="nonzero"></path>
                    <g id="编组-31" transform="translate(367.203727, 107.565128)">
                        <mask id="mask-10" fill="white">
                            <use xlink:href="#path-9"></use>
                        </mask>
                        <use id="路径-267" fill="#FFC7CA" xlink:href="#path-9"></use>
                        <path d="M37.0522003,0.307836289 L37.2896585,0.818500133 C34.0219148,2.3378487 30.476217,3.09742516 26.6554679,3.09742516 C23.2487905,3.09742516 20.0825289,2.55623824 17.1581967,1.47334269 L16.7939153,1.33515931 L16.9978387,0.810204277 C19.9564152,1.95937617 23.1750547,2.53425695 26.6554679,2.53425695 C30.2618404,2.53425695 33.6121964,1.8441195 36.7091383,0.464020017 L37.0522003,0.307836289 Z" id="路径" fill="#000000" fill-rule="nonzero" mask="url(#mask-10)"></path>
                    </g>
                    <g id="编组-104" transform="translate(345.239087, 0.000000)">
                        <path d="M90.0740743,56.0148048 C91.0813174,51.6918255 90.5508073,48.0611576 88.4825439,45.1228012 C85.3801489,40.7152665 95.8340129,32.5699023 92.9540436,23.7215759 C90.0740743,14.8732495 81.0485276,14.5980638 75.2030727,17.5064238 C69.3576179,20.4147837 65.6933458,19.3759906 63.0356339,13.078674 C60.3779219,6.78135743 57.755438,3.22236625 53.270133,1.9003991 C48.784828,0.578431956 44.9633226,0.725969454 42.7658739,4.66660154 C36.5775295,1.07571169 30.8477173,0.17798923 25.5764371,1.97343415 C17.6695169,4.66660154 12.1444104,14.1292049 14.1373698,23.7215759 C8.64883325,28.0345563 5.30689358,32.6796723 4.11155075,37.6569238 C2.91620791,42.6341754 4.78214587,47.4753557 9.70936461,52.1804647 C7.31810618,56.0382803 6.58017852,59.2103055 7.49558164,61.6965402 C8.41098476,64.182775 10.1133663,63.2848351 12.6027261,59.0027207 L20.098071,58.092391 L21.5807808,50.4250152 L33.7053743,50.4250152 L39.7157615,41.7625369 L48.6115511,35.4736976 L55.1962276,37.6569238 L64.1320861,46.0885593 L71.3982731,50.4250152 L76.6968185,54.7360393 L84.1597047,57.0601189 L90.0740743,56.0148048 Z" id="路径-266" fill="#2F1B16"></path>
                        <path d="M42.8400138,31.8076729 C42.9854978,31.7527068 43.1479969,31.8260803 43.2029657,31.9715572 C43.2579345,32.1170341 43.1845574,32.2795252 43.0390734,32.3344913 C40.1603845,33.4221041 37.9068354,35.8443239 34.7249528,40.6562416 L32.2881283,44.404084 C30.1315613,47.6569735 27.1324426,47.6569735 23.4642239,44.4607919 C23.3469702,44.3586268 23.3347426,44.1807573 23.4369128,44.0635094 C23.5390829,43.9462615 23.7169611,43.9340345 23.8342148,44.0361996 C27.2158454,46.982672 29.7920561,47.0280024 31.7284156,44.2263213 L32.0173103,43.790871 C32.6080853,42.8878785 33.8266987,40.9991439 33.88883,40.9037982 C37.330429,35.6223792 39.7013358,32.9935136 42.8400138,31.8076729 Z" id="路径-310" fill="#FFFFFF" fill-rule="nonzero"></path>
                        <path d="M42.6908231,4.27768274 C44.6186335,0.646596413 48.6922762,-0.50077722 54.8349783,0.80023907 C58.4331095,1.56231855 60.8922619,3.83291998 63.4387343,7.92793186 L63.688561,8.33636503 C64.1826029,9.16235898 65.5997711,11.6114668 65.9942326,12.2382371 C67.4312457,14.521545 68.5690624,15.5368274 69.9639549,15.5368274 L70.431499,15.534671 C71.0200741,15.5219852 71.4712135,15.4407765 73.5452387,14.9392299 L75.9897615,14.3422639 C79.6824442,13.4377057 82.2149085,13.0432459 84.8428717,13.1459191 C89.0077214,13.3086379 92.4720879,14.8559705 95.2435922,18.1912264 C100.550804,24.577978 99.2024628,32.3257395 91.2712714,41.3536742 C91.1686296,41.4705095 90.9907036,41.4820197 90.8738626,41.379383 C90.7570215,41.2767462 90.7455107,41.098829 90.8481525,40.9819937 C98.6155404,32.1405137 99.9120627,24.6905093 94.8104218,18.5511435 C92.1464063,15.3452407 88.8331871,13.8654168 84.8208836,13.708658 C82.3438718,13.6118823 79.9352225,13.97097 76.4845003,14.8016437 L72.7873269,15.6996412 C71.3058373,16.0481933 70.9386639,16.094082 70.365369,16.0995047 L69.9639549,16.0999956 C68.3588705,16.0999956 67.1203176,15.0346097 65.6446526,12.7380624 L65.5175723,12.5381966 C65.0868538,11.8538165 63.4808965,9.07407242 63.1143148,8.47478841 C60.5848112,4.33958101 58.2029199,2.08922704 54.7182774,1.35118431 C48.7950975,0.0966625584 44.9773506,1.17196113 43.188264,4.54175726 C43.1153382,4.67911501 42.9448643,4.73135037 42.8074998,4.6584282 C42.6701353,4.58550604 42.6178974,4.41504049 42.6908231,4.27768274 Z" id="路径-311" fill="#2F1B16" fill-rule="nonzero"></path>
                        <path d="M12.2352861,22.9764085 C12.369598,22.8980064 12.5420398,22.9433247 12.6204459,23.07763 C12.6988519,23.2119352 12.6535313,23.3843686 12.5192195,23.4627708 C5.51346531,27.5522571 1.68322663,31.9984671 0.998920976,36.7911639 C0.139366264,42.8112589 3.19049477,49.3826989 6.72644815,52.2601752 C6.84707338,52.3583372 6.86527952,52.5356945 6.76711269,52.6563138 C6.66894587,52.7769331 6.49157987,52.7951383 6.37095464,52.6969763 C2.69066697,49.7020442 -0.448166463,42.9417076 0.441378985,36.7115653 C1.15419497,31.7191897 5.09535817,27.1442164 12.2352861,22.9764085 Z" id="路径-312" fill="#2F1B16" fill-rule="nonzero"></path>
                    </g>
                    <path d="M363.350027,77.5424081 C368.66493,99.4347823 378.907235,110.380969 394.076942,110.380969 C409.246649,110.380969 419.931507,98.1547433 426.131515,73.7022913 C431.536253,69.9374108 434.741065,65.0527915 435.745952,59.0484332 C437.253283,50.0418959 428.155935,49.7786228 426.131515,52.1734322 C424.781902,53.7699718 423.44368,53.051659 422.116847,50.0184938 C420.072386,46.8145804 417.748157,45.2126237 415.14416,45.2126237 C412.540163,45.2126237 408.642206,41.9484717 403.45029,35.4201676 C401.070785,31.8847252 397.946336,30.4578505 394.076942,31.1395434 C388.272851,32.1620828 384.162187,35.7555969 380.660051,42.0227948 C377.157916,48.2899927 373.90505,50.0535969 370.251921,46.9125223 C366.598792,43.7714477 363.350027,46.2579151 363.350027,50.0184938 C363.350027,53.7790726 364.111306,56.7985865 361.891964,56.7985865 C359.672622,56.7985865 356.878593,55.6960902 354.581151,57.9576379 C352.283708,60.2191856 352.397604,67.4824124 357.144784,72.5124103 C360.309571,75.8657422 362.377985,77.5424081 363.350027,77.5424081 Z" id="路径-265" fill="#FFC7CA"></path>
                    <path d="M376.062047,133.470866 C390.192408,148.476769 406.388295,148.476769 424.649707,133.470866 L416.428997,371.127851 L370.748838,369.577849 L376.062047,133.470866 Z" id="路径-268" fill="#FDF7DA"></path>
                    <g id="编组-86" transform="translate(217.956813, 125.586511)">
                        <mask id="mask-12" fill="white">
                            <use xlink:href="#path-11"></use>
                        </mask>
                        <use id="路径-263" fill="#95BDEC" xlink:href="#path-11"></use>
                        <path d="M160.063731,6.0806946 L145.654929,6.0806946 L147.832262,17.1738648 L153.888774,18.7906705 L147.778724,25.193229 L166.555995,175.347681 L167.11677,175.301016 L160.063731,6.0806946 Z M159.522986,6.64369538 L166.270636,168.532592 L148.370017,25.3887493 L154.952751,18.4915858 L148.317077,16.7204642 L146.339133,6.64369538 L159.522986,6.64369538 Z" id="路径-284" fill="#FFFFFF" fill-rule="nonzero" mask="url(#mask-12)"></path>
                        <polygon id="路径-285" fill="#000000" mask="url(#mask-12)" points="28.5619172 80.6626521 99.4530966 111.724143 90.8020894 205.395994 95.8733288 115.176448"></polygon>
                    </g>
                    <g id="编组-85" transform="translate(415.075378, 133.470866)">
                        <mask id="mask-14" fill="white">
                            <use xlink:href="#path-13"></use>
                        </mask>
                        <use id="路径-264" fill="#95BDEC" xlink:href="#path-13"></use>
                        <path d="M23.1778558,-0.607742746 L7.44552375,-2.1157109 L1.71569821,167.134105 L2.27654095,167.178697 L21.0340086,17.7304476 L15.734567,13.067192 L20.9874332,9.47722525 L23.1778558,-0.607742746 Z M7.98780745,-1.49746427 L22.4923546,-0.107565128 L20.4839981,9.13909373 L14.8180041,13.0112084 L20.437816,17.9560552 L2.48763629,160.972059 L7.98780745,-1.49746427 Z" id="路径-283" fill="#FFFFFF" fill-rule="nonzero" mask="url(#mask-14)"></path>
                    </g>
                    <g id="编组-13" transform="translate(336.791148, 282.147274)">
                        <path d="M1.03649198,22.4040535 C3.9074569,15.0658196 7.95159353,11.3967026 13.1689019,11.3967026 C18.3862102,11.3967026 48.7808442,11.3967026 104.352804,11.3967026 C108.375199,12.4634558 110.386396,16.1471868 110.386396,22.4478957 C110.386396,28.7486046 110.386396,42.8059801 110.386396,64.6200223 C110.121931,69.1465959 108.605806,72.317929 105.838022,74.1340216 C103.070239,75.9501143 99.9175587,76.7902967 96.3799815,76.6545688 L10.9022554,76.6545688 C4.3250798,74.0340194 1.03649198,69.6041894 1.03649198,63.3650789 C1.03649198,57.1259683 1.03649198,43.4722932 1.03649198,22.4040535 Z" id="路径-120" fill="#83ACDB"></path>
                        <path d="M34.7224815,10.0783507 C35.5728079,4.0402406 38.1303147,0.78158955 42.3950018,0.302397577 L69.7377671,0 C74.9870594,0.719938479 77.6117056,2.99887101 77.6117056,6.83679758 C77.7786299,9.30056107 77.7786299,11.0584104 77.6117056,12.1103455 C77.4447812,13.1622807 76.9069615,14.7937005 75.9982463,17.0046051 L34.7224815,17.0950539 L34.7224815,10.0783507 Z" id="路径-121" fill="#83ACDB"></path>
                        <path d="M45.3417433,3.10819161 L65.0442602,3.10819161 C70.9093335,3.10819161 75.6639149,7.86277296 75.6639149,13.7278463 C75.6639149,19.5928071 70.9094247,24.3472972 65.044464,24.3472972 C65.044396,24.3472972 65.0443281,24.3472972 65.0442602,24.3472972 L45.3417433,24.3469191 C39.476854,24.3468066 34.7224815,19.5923428 34.7224815,13.7274535 C34.7224815,7.86259709 39.476887,3.10819161 45.3417433,3.10819161 Z" id="矩形" fill="#FFBE33"></path>
                        <g id="编组-14" transform="translate(0.000000, 17.095054)">
                            <mask id="mask-16" fill="white">
                                <use xlink:href="#path-15"></use>
                            </mask>
                            <use id="矩形" fill="#FFCE66" xlink:href="#path-15"></use>
                            <polygon id="路径-123" fill="#FFFFFF" mask="url(#mask-16)" points="-2.93186516 38.3343632 103.994982 38.3343632 103.994982 48.5223246 -2.93186516 48.5223246"></polygon>
                            <polygon id="路径-122" fill="#FFFFFF" fill-rule="nonzero" mask="url(#mask-16)" points="104.167444 17.6768563 104.167444 18.6768563 -2.88123673e-16 18.6768563 3.64164694e-17 17.6768563"></polygon>
                        </g>
                        <ellipse id="椭圆形" fill="#95BDEC" cx="50.5289842" cy="49.9900818" rx="22.0254547" ry="22.0163572"></ellipse>
                        <ellipse id="椭圆形" fill="#E1E1E1" cx="51.3063532" cy="49.4720498" rx="14.5108878" ry="14.7639102"></ellipse>
                        <path d="M50.7881072,30.5638842 C61.6644428,30.5638842 70.4814549,39.3772545 70.4814549,50.2490977 C70.4814549,61.120941 61.6644428,69.9343113 50.7881072,69.9343113 C39.9117716,69.9343113 31.0947595,61.120941 31.0947595,50.2490977 C31.0947595,39.3772545 39.9117716,30.5638842 50.7881072,30.5638842 Z M50.7881072,31.1270524 C40.2227703,31.1270524 31.6579554,39.6883296 31.6579554,50.2490977 C31.6579554,60.8098658 40.2227703,69.371143 50.7881072,69.371143 C61.3534442,69.371143 69.918259,60.8098658 69.918259,50.2490977 C69.918259,39.6883296 61.3534442,31.1270524 50.7881072,31.1270524 Z" id="椭圆形" fill="#6784A7" fill-rule="nonzero"></path>
                        <ellipse id="椭圆形" fill="#344B65" cx="51.0472302" cy="49.7310658" rx="5.44158292" ry="5.69835129"></ellipse>
                    </g>
                    <g id="编组-84" transform="translate(354.813417, 208.935406)">
                        <mask id="mask-18" fill="white">
                            <use xlink:href="#path-17"></use>
                        </mask>
                        <use id="路径-269" fill="#FFC7CA" xlink:href="#path-17"></use>
                        <polygon id="路径-286" fill="#000000" mask="url(#mask-18)" points="177.088242 46.0622473 205.587362 1.47257803 202.5799 -2.54884734 170.945435 40.5571623"></polygon>
                    </g>
                    <path d="M408.745949,315.806871 C412.131099,314.486587 414.497306,314.997136 415.72996,317.365225 L415.797273,317.498697 C417.565844,321.118479 426.697155,332.808765 430.935024,336.75824 C433.745453,339.377415 438.280812,339.4171 444.573188,336.826161 L444.864853,336.704711 L445.083394,337.223752 C438.457176,340.013431 433.601862,340.013431 430.55104,337.170222 C426.316162,333.223535 417.307638,321.707797 415.357856,317.879349 L415.291242,317.745912 C414.245607,315.605783 412.231288,315.10208 409.134044,316.261427 L408.983851,316.318068 L408.871471,316.398768 C406.288265,318.290906 405.920912,321.166751 407.799391,325.117343 L407.900332,325.326262 C408.260533,326.060235 408.718285,326.869998 409.32372,327.857746 L409.872184,328.736075 L411.754122,331.673059 C412.919484,333.498391 413.725533,334.842676 414.424709,336.173936 C417.115813,341.297905 417.477511,345.114632 414.750202,348.031989 C411.408796,351.606236 405.593778,354.687622 399.18778,355.793377 C391.261732,357.161511 382.963812,355.556659 374.948264,350.436454 L374.594822,350.20828 L368.092204,346.083207 C365.881969,344.799533 364.006941,344.701668 362.423814,345.762234 C360.250693,347.218048 360.609905,350.960421 362.694202,352.044048 L363.014848,352.217937 C364.638102,353.121744 369.852116,356.266663 378.672763,361.662015 L386.071111,366.195916 L385.77831,366.676988 L360.391872,351.358394 L360.257405,351.335249 C357.457383,350.876347 355.856634,351.610101 355.339591,353.533753 L355.307406,353.660895 C354.540189,356.885608 355.781584,358.675592 361.028554,361.706649 L361.513176,361.982822 C365.982558,364.496575 373.332663,367.753279 381.174472,370.280209 C392.994306,374.089011 404.689285,375.929908 415.521738,375.060904 C431.78346,373.756351 477.633366,361.419853 558.854885,336.633053 L566.492576,334.297477 L566.657575,334.835935 L561.539815,336.401966 C478.689685,361.720289 432.055851,374.299477 415.566777,375.622268 C404.651783,376.497894 392.886323,374.645903 381.001728,370.816232 L380.128439,370.531188 C372.434473,367.98796 365.301299,364.790806 360.987951,362.332635 L360.746826,362.194291 C355.309091,359.053034 353.921595,357.052386 354.759502,353.530552 C355.317785,351.184017 357.223131,350.268181 360.351809,350.780092 L360.540996,350.812519 L360.636847,350.848604 L360.950563,351.037951 L360.895894,350.933321 C359.998368,349.158807 360.255016,346.643768 361.989773,345.378658 L362.110346,345.29436 C363.842639,344.133865 365.88169,344.207372 368.196212,345.494885 L368.384479,345.601938 L374.899534,349.734671 C382.90695,354.958565 391.188105,356.602723 399.091977,355.238416 C405.378477,354.153288 411.082263,351.130844 414.338778,347.647405 C416.857639,344.953021 416.518209,341.371277 413.926093,336.435784 L413.691646,335.996398 C413.133612,334.966636 412.493033,333.894803 411.652318,332.563284 L409.136015,328.624773 L408.842249,328.149938 C408.228924,327.149247 407.763563,326.325918 407.394734,325.574362 C405.292251,321.290175 405.663835,318.047569 408.541124,315.942623 L408.687077,315.838324 L408.745949,315.806871 Z" id="路径" fill="#000000" fill-rule="nonzero"></path>
                    <g id="编组-82" transform="translate(268.896016, 735.185852)">
                        <path d="M4.95121559,54.344448 L129.355141,54.344448 C132.930383,34.6688444 127.416368,21.4209531 112.813095,14.6007742 L112.798859,4.86630162 C112.175826,2.62396311 110.949955,1.31454841 109.121244,0.938057529 C107.292534,0.561566644 105.707531,1.87098134 104.366236,4.86630162 L103.604931,15.7383011 C91.0382185,22.9863007 74.9652467,22.9863007 55.3860156,15.7383011 C23.4154279,1.8210944 5.31987932,5.89602836 1.09936978,27.963103 C0.376855954,35.2631582 1.39791955,43.5600419 4.16256055,52.8537541 C4.4154907,53.8055073 4.55307719,54.3024052 4.57532001,54.344448 C4.59756283,54.3864907 4.72286135,54.3864907 4.95121559,54.344448 Z" id="路径-274" fill="#FFFFFF"></path>
                        <polygon id="路径-281" fill="#95BDEC" points="3.4759257 50.7749525 129.889656 50.7749525 129.475532 54.37598 4.40480058 54.37598"></polygon>
                        <path d="M104.085326,4.84663299 L103.334234,15.5680586 L103.464235,15.494383 C90.9787736,22.6955198 74.9908546,22.6955198 55.4837805,15.4742318 C23.3855555,1.50098103 5.0855983,5.62194573 0.822784607,27.910209 C0.0927434405,35.2746645 1.11822195,43.6074226 3.89265066,52.9340375 L4.19012418,54.0375835 C4.26464073,54.3047518 4.30608947,54.4377182 4.32640748,54.4761228 C4.44158892,54.6938355 4.60865071,54.6938355 5.00220659,54.6213772 L129.590183,54.6260321 L129.632202,54.3947877 L129.737352,53.8029157 C133.082413,34.5313142 127.625995,21.4225232 113.371374,14.5539581 L113.094419,14.4225745 L113.080457,4.86588984 L113.07018,4.79092273 C112.420582,2.45297477 111.118038,1.06166275 109.178031,0.662258298 C107.189048,0.252770826 105.498063,1.64974073 104.109227,4.75122519 L104.085326,4.84663299 Z M109.219021,1.24840896 C110.800012,1.6303524 111.879991,2.78472445 112.471791,4.74905432 L112.517143,4.90672122 L112.531759,14.7801642 L113.125559,15.0606576 C127.137054,21.8116095 132.488106,34.6686854 129.181991,53.7093006 L129.119032,54.0628585 L4.95121559,54.0628639 L4.78734206,54.0859484 L4.4347131,52.7814362 C1.67761714,43.5126612 0.660968467,35.2516519 1.37959867,27.9908356 C5.55416035,6.17011099 23.4453004,2.14120777 55.2736153,15.9964813 C74.7429785,23.2042756 90.7741522,23.2763536 103.365136,16.1988766 L103.875379,15.9073838 L104.643665,4.9354428 L104.623245,4.98137804 C105.917,2.09222195 107.39602,0.870362462 109.064458,1.21385676 L109.219021,1.24840896 Z" id="路径-274" fill="#000000" fill-rule="nonzero"></path>
                        <path d="M15.8260467,1.45750174 C16.0715065,1.45750174 16.275655,1.5571122 16.317991,1.68847074 L16.3260467,1.73908584 L16.3260467,25.0533275 C16.3260467,25.2088421 16.102189,25.3349116 15.8260467,25.3349116 C15.5805868,25.3349116 15.3764383,25.2353012 15.3341023,25.1039426 L15.3260467,25.0533275 L15.3260467,1.73908584 C15.3260467,1.58357123 15.5499043,1.45750174 15.8260467,1.45750174 Z" id="路径-341" fill="#0083EC" fill-rule="nonzero"></path>
                        <path d="M21.0282578,1.45750174 C21.2737177,1.45750174 21.4778662,1.5571122 21.5202021,1.68847074 L21.5282578,1.73908584 L21.5282578,25.0533275 C21.5282578,25.2088421 21.3044002,25.3349116 21.0282578,25.3349116 C20.7827979,25.3349116 20.5786494,25.2353012 20.5363135,25.1039426 L20.5282578,25.0533275 L20.5282578,1.73908584 C20.5282578,1.58357123 20.7521154,1.45750174 21.0282578,1.45750174 Z" id="路径-341" fill="#0083EC" fill-rule="nonzero"></path>
                        <path d="M26.2304689,1.45750174 C26.4759288,1.45750174 26.6800773,1.5571122 26.7224132,1.68847074 L26.7304689,1.73908584 L26.7304689,25.0533275 C26.7304689,25.2088421 26.5066113,25.3349116 26.2304689,25.3349116 C25.985009,25.3349116 25.7808605,25.2353012 25.7385246,25.1039426 L25.7304689,25.0533275 L25.7304689,1.73908584 C25.7304689,1.58357123 25.9543265,1.45750174 26.2304689,1.45750174 Z" id="路径-341" fill="#0083EC" fill-rule="nonzero"></path>
                    </g>
                    <g id="编组-83" transform="translate(462.383834, 735.497684)">
                        <path d="M4.63959134,54.0326162 L129.043517,54.0326162 C132.618759,34.3570126 127.104744,21.1091213 112.501471,14.2889424 L112.487235,4.55446983 C111.864202,2.31213132 110.63833,1.00271662 108.80962,0.62622574 C106.98091,0.249734855 105.395907,1.55914955 104.054612,4.55446983 L103.293307,15.4264693 C90.7265943,22.6744689 74.6536224,22.6744689 55.0743913,15.4264693 C23.1038037,1.50926261 5.00825508,5.58419657 0.787745532,27.6512712 C0.0652317098,34.9513264 1.0862953,43.2482102 3.85093631,52.5419223 C4.10386646,53.4936755 4.24145294,53.9905734 4.26369576,54.0326162 C4.28593858,54.0746589 4.41123711,54.0746589 4.63959134,54.0326162 Z" id="路径-274" fill="#FFFFFF" transform="translate(65.330724, 27.313658) scale(-1, 1) translate(-65.330724, -27.313658) "></path>
                        <polygon id="路径-282" fill="#95BDEC" points="1.08341701 50.9775533 126.976926 50.9775533 126.145707 54.0641483 1.52650793 54.0641483"></polygon>
                        <path d="M103.773702,4.5348012 L103.02261,15.2562268 L103.15261,15.1825512 C90.6671493,22.383688 74.6792304,22.383688 55.1721562,15.1624 C23.0739312,1.18914924 4.77397406,5.31011394 0.511160362,27.5983772 C-0.218880804,34.9628327 0.806597704,43.2955909 3.58102641,52.6222057 L3.87849994,53.7257517 C3.95301648,53.99292 3.99446522,54.1258864 4.01478323,54.164291 C4.12996468,54.3820038 4.29702647,54.3820038 4.69058235,54.3095454 L129.278559,54.3142003 L129.320578,54.0829559 L129.425727,53.4910839 C132.770789,34.2194824 127.314371,21.1106914 113.05975,14.2421263 L112.782795,14.1107427 L112.768832,4.55405805 L112.758555,4.47909094 C112.108958,2.14114299 110.806414,0.749830959 108.866407,0.350426509 C106.877424,-0.0590609634 105.186438,1.33790894 103.797603,4.4393934 L103.773702,4.5348012 Z M108.907397,0.936577172 C110.488388,1.31852061 111.568367,2.47289266 112.160167,4.43722253 L112.205519,4.59488943 L112.220135,14.4683324 L112.813934,14.7488258 C126.825429,21.4997777 132.176482,34.3568536 128.870367,53.3974688 L128.807408,53.7510267 L4.63959134,53.7510321 L4.47571781,53.7741166 L4.12308885,52.4696044 C1.3659929,43.2008295 0.349344223,34.9398201 1.06797443,27.6790038 C5.2425361,5.8582792 23.1336761,1.82937598 54.9619911,15.6846495 C74.4313543,22.8924439 90.4625279,22.9645218 103.053511,15.8870449 L103.563754,15.595552 L104.33204,4.62361101 L104.311621,4.66954626 C105.605376,1.78039016 107.084396,0.558530673 108.752834,0.902024971 L108.907397,0.936577172 Z" id="路径-274" fill="#000000" fill-rule="nonzero" transform="translate(65.331321, 27.316762) scale(-1, 1) translate(-65.331321, -27.316762) "></path>
                        <path d="M99.8837198,1.14566995 C100.12918,1.14566995 100.333328,1.24528041 100.375664,1.37663895 L100.38372,1.42725405 L100.38372,24.7414957 C100.38372,24.8970103 100.159862,25.0230798 99.8837198,25.0230798 C99.6382599,25.0230798 99.4341114,24.9234694 99.3917755,24.7921108 L99.3837198,24.7414957 L99.3837198,1.42725405 C99.3837198,1.27173944 99.6075774,1.14566995 99.8837198,1.14566995 Z" id="路径-341" fill="#0083EC" fill-rule="nonzero"></path>
                        <path d="M105.085931,1.14566995 C105.331391,1.14566995 105.535539,1.24528041 105.577875,1.37663895 L105.585931,1.42725405 L105.585931,24.7414957 C105.585931,24.8970103 105.362073,25.0230798 105.085931,25.0230798 C104.840471,25.0230798 104.636323,24.9234694 104.593987,24.7921108 L104.585931,24.7414957 L104.585931,1.42725405 C104.585931,1.27173944 104.809789,1.14566995 105.085931,1.14566995 Z" id="路径-341" fill="#0083EC" fill-rule="nonzero"></path>
                        <path d="M110.288142,1.14566995 C110.533602,1.14566995 110.73775,1.24528041 110.780086,1.37663895 L110.788142,1.42725405 L110.788142,24.7414957 C110.788142,24.8970103 110.564284,25.0230798 110.288142,25.0230798 C110.042682,25.0230798 109.838534,24.9234694 109.796198,24.7921108 L109.788142,24.7414957 L109.788142,1.42725405 C109.788142,1.27173944 110.012,1.14566995 110.288142,1.14566995 Z" id="路径-341" fill="#0083EC" fill-rule="nonzero"></path>
                    </g>
                    <path d="M392.796779,73.0834639 C392.867697,72.780627 393.170698,72.5926174 393.47355,72.6635327 C393.776402,72.734448 393.964421,73.037434 393.893502,73.3402709 C393.060079,76.8991495 392.899448,79.355534 393.374715,80.6523976 C393.772337,81.7373916 394.633025,81.9610301 396.272101,81.2736738 C396.558942,81.1533852 396.888991,81.2883914 397.009285,81.5752186 C397.12958,81.8620458 396.994567,82.1920783 396.707726,82.3123669 C394.536385,83.2229316 392.967736,82.8153384 392.3171,81.0399481 C391.74411,79.4764274 391.916301,76.8432749 392.796779,73.0834639 Z" id="路径-288" fill="#000000" fill-rule="nonzero"></path>
                    <path d="M388.041975,95.1754277 C392.137705,97.1540185 396.45554,97.1540185 400.995481,95.1754277 C398.84516,96.8218447 396.825711,97.7506733 394.937133,97.9619136 C393.048555,98.1731539 390.750169,97.2443252 388.041975,95.1754277 Z" id="路径-289" stroke="#000000" fill="#000000" stroke-linejoin="round"></path>
                    <ellipse id="椭圆形" fill="#FFFFFF" cx="379.875634" cy="65.8906807" rx="3.66077335" ry="6.19485032"></ellipse>
                    <ellipse id="椭圆形" fill="#000000" cx="379.875634" cy="66.4538489" rx="3.09757745" ry="5.63168211"></ellipse>
                    <ellipse id="椭圆形" fill="#FFFFFF" cx="408.035429" cy="65.8906807" rx="3.66077335" ry="6.19485032"></ellipse>
                    <ellipse id="椭圆形" fill="#000000" cx="408.035429" cy="66.4538489" rx="3.09757745" ry="5.63168211"></ellipse>
                    <path d="M371.77271,55.0725864 C374.969771,52.7267531 379.333948,52.1001029 384.820801,53.1446874 C385.279135,53.2319448 385.579948,53.6742157 385.492686,54.132527 C385.405425,54.5908384 384.963132,54.891637 384.504798,54.8043796 C379.441534,53.8404378 375.545504,54.3998672 372.772269,56.4347193 C372.396108,56.7107264 371.86741,56.6295504 371.59139,56.2534078 C371.315369,55.8772652 371.396549,55.3485934 371.77271,55.0725864 Z" id="路径-380" fill="#000000" fill-rule="nonzero" transform="translate(378.467693, 54.627462) rotate(6.000000) translate(-378.467693, -54.627462) "></path>
                    <path d="M401.622093,55.0725864 C404.819154,52.7267531 409.18333,52.1001029 414.670183,53.1446874 C415.128517,53.2319448 415.429331,53.6742157 415.342069,54.132527 C415.254807,54.5908384 414.812515,54.891637 414.354181,54.8043796 C409.290917,53.8404378 405.394887,54.3998672 402.621652,56.4347193 C402.245491,56.7107264 401.716793,56.6295504 401.440772,56.2534078 C401.164752,55.8772652 401.245932,55.3485934 401.622093,55.0725864 Z" id="路径-380" fill="#000000" fill-rule="nonzero" transform="translate(408.317076, 54.627462) scale(-1, 1) rotate(5.000000) translate(-408.317076, -54.627462) "></path>
                    <path d="M426.902492,55.3071248 C429.68732,54.2418791 431.621505,54.428547 432.705048,55.8671285 C434.330363,58.0250007 430.618654,66.0739906 426.902492,68.7065217 L426.902492,55.3071248 Z" id="路径-384" fill="#FFBDC1"></path>
                    <path d="M361.93239,73.8976145 L361.932596,59.583512 C360.552095,58.7389942 359.074286,58.4682117 357.49917,58.7711644 C355.136496,59.2255936 354.431165,63.6993665 356.029881,66.8086111 C357.095691,68.8814409 359.063194,71.244442 361.93239,73.8976145 Z" id="路径-385" fill="#FFBDC1" transform="translate(358.550651, 66.274401) rotate(-2.000000) translate(-358.550651, -66.274401) "></path>
                </g>
            </g>
        </g>
    </g>
</svg>