<?xml version="1.0" standalone="no"?><!DOCTYPE svg PUBLIC "-//W3C//DTD SVG 1.1//EN" "http://www.w3.org/Graphics/SVG/1.1/DTD/svg11.dtd"><svg t="1661563567618" class="icon" viewBox="0 0 1024 1024" version="1.1" xmlns="http://www.w3.org/2000/svg" p-id="1998" xmlns:xlink="http://www.w3.org/1999/xlink" width="200" height="200"><path d="M725.333333 554.666667H298.666667v-85.333334h426.666666z m-426.666666 170.666666a85.333333 85.333333 0 0 1-85.333334-85.333333V384a85.333333 85.333333 0 0 1 85.333334-85.333333 85.333333 85.333333 0 0 0 85.333333-85.333334h-85.333333a170.666667 170.666667 0 0 0-170.666667 170.666667v256a170.666667 170.666667 0 0 0 170.666667 170.666667h85.333333a85.333333 85.333333 0 0 0-85.333333-85.333334z m426.666666-426.666666a85.333333 85.333333 0 0 1 85.333334 85.333333v256a85.333333 85.333333 0 0 1-85.333334 85.333333 85.333333 85.333333 0 0 0-85.333333 85.333334h85.333333a170.666667 170.666667 0 0 0 170.666667-170.666667V384a170.666667 170.666667 0 0 0-170.666667-170.666667h-85.333333a85.333333 85.333333 0 0 0 85.333333 85.333334z" p-id="1999" fill="#2c2c2c"></path></svg>